<?xml version="1.0" encoding="utf-8"?>
<svg xmlns="http://www.w3.org/2000/svg" viewBox="-2.09 154.06 484.662 235.797">
  <path fill-rule="evenodd" clip-rule="evenodd" d="M 103.64 379.407 C 156.72 379.407 199.76 331.692 199.76 272.832 C 199.76 213.967 156.72 166.251 103.64 166.251 C 50.55 166.251 7.516 213.967 7.516 272.832 C 7.516 331.692 50.55 379.407 103.64 379.407 Z M 60.764 213.532 C 69.427 214.351 174.115 308.176 61.513 213.342 L 61.31 261.049 C 97.15 239.492 241.69 212.776 55.694 332.288 L 79.378 272.832 L 79.378 272.686 L 112.3 272.686 L 79.188 272.514 L 54.107 331.854 C 52.649 337.605 126.145 330.684 130.738 327.053 L 79.393 272.76 C 84.379 268.822 137.034 341.916 126.535 322.424 L 76.189 326.155 C 94.125 230.193 248.624 183.785 60.764 213.532 Z" fill="#0260FF" style="stroke-width: 1;"/>
  <text style="fill: rgb(51, 51, 51); font-family: Arial, sans-serif; font-size: 59px; font-weight: 700; letter-spacing: 1px; text-transform: uppercase; word-spacing: 1px; white-space: pre;" transform="matrix(1.520475, 0.001675, -0.001764, 1.600497, -151.505068, -103.150201)"><tspan x="233.531" y="173.928" dx="-2.091" dy="52.283">Skill</tspan><tspan x="233.531" dy="1.1em">​</tspan></text>
  <text style="fill: rgb(51, 51, 51); font-family: Arial, sans-serif; font-size: 41px; font-weight: 700; white-space: pre;" x="289.997" y="330.08" transform="matrix(1.690222, 0, 0, 2.029824, -283.815159, -331.832616)">- Nest</text>
</svg>